<svg width="55" height="55" viewBox="0 0 55 55" fill="none" xmlns="http://www.w3.org/2000/svg">
<path d="M3.82594 46.4318V48.2908H6.17176V49.2505H3.82594V51.1466H6.80226V52.1433H2.57422V45.4397H6.80226V46.4318H3.82594Z" fill="#FFA76D"/>
<path d="M8.6434 48.7915C8.6434 49.1593 8.69285 49.49 8.79175 49.7836C8.89066 50.0741 9.03128 50.3214 9.21363 50.5254C9.39907 50.7262 9.6216 50.8808 9.88122 50.989C10.1439 51.0971 10.4391 51.1512 10.7667 51.1512C11.0943 51.1512 11.3879 51.0971 11.6475 50.989C11.9102 50.8808 12.1328 50.7262 12.3151 50.5254C12.4975 50.3214 12.6381 50.0741 12.737 49.7836C12.8359 49.49 12.8853 49.1593 12.8853 48.7915C12.8853 48.4237 12.8359 48.0945 12.737 47.804C12.6381 47.5104 12.4975 47.2616 12.3151 47.0576C12.1328 46.8536 11.9102 46.6976 11.6475 46.5894C11.3879 46.4812 11.0943 46.4271 10.7667 46.4271C10.4391 46.4271 10.1439 46.4812 9.88122 46.5894C9.6216 46.6976 9.39907 46.8536 9.21363 47.0576C9.03128 47.2616 8.89066 47.5104 8.79175 47.804C8.69285 48.0945 8.6434 48.4237 8.6434 48.7915ZM14.508 53.4553H13.4788C13.3304 53.4553 13.196 53.4352 13.0754 53.395C12.958 53.3549 12.8498 53.2807 12.7509 53.1725L11.7681 52.0877C11.6104 52.131 11.4482 52.1634 11.2813 52.185C11.1175 52.2067 10.946 52.2175 10.7667 52.2175C10.2598 52.2175 9.79777 52.1325 9.38053 51.9625C8.96329 51.7894 8.60477 51.5499 8.30497 51.2439C8.00827 50.938 7.77801 50.5764 7.61421 50.1591C7.4504 49.7388 7.3685 49.2829 7.3685 48.7915C7.3685 48.3001 7.4504 47.8457 7.61421 47.4285C7.77801 47.0082 8.00827 46.645 8.30497 46.339C8.60477 46.0331 8.96329 45.7951 9.38053 45.6251C9.79777 45.452 10.2598 45.3655 10.7667 45.3655C11.1067 45.3655 11.4266 45.4057 11.7263 45.486C12.0261 45.5633 12.3012 45.6745 12.5516 45.8198C12.8019 45.962 13.026 46.1366 13.2238 46.3437C13.4247 46.5477 13.5947 46.7764 13.7337 47.0298C13.8728 47.2832 13.9779 47.5583 14.049 47.855C14.1232 48.1517 14.1602 48.4639 14.1602 48.7915C14.1602 49.0913 14.1293 49.3787 14.0675 49.6538C14.0057 49.9258 13.9161 50.1807 13.7986 50.4187C13.6843 50.6567 13.5437 50.8761 13.3768 51.077C13.2099 51.2748 13.0198 51.4495 12.8065 51.6009L14.508 53.4553Z" fill="#FFA76D"/>
<path d="M17.949 51.1373C18.19 51.1373 18.4048 51.0971 18.5934 51.0168C18.785 50.9364 18.9457 50.8236 19.0755 50.6783C19.2053 50.5331 19.3042 50.3569 19.3722 50.1498C19.4433 49.9428 19.4788 49.711 19.4788 49.4544V45.4397H20.7259V49.4544C20.7259 49.8531 20.661 50.2225 20.5312 50.5624C20.4045 50.8993 20.2206 51.1914 19.9795 51.4386C19.7415 51.6828 19.451 51.8744 19.108 52.0135C18.7649 52.1495 18.3786 52.2175 17.949 52.2175C17.5163 52.2175 17.1284 52.1495 16.7853 52.0135C16.4423 51.8744 16.1502 51.6828 15.9091 51.4386C15.6711 51.1914 15.4872 50.8993 15.3574 50.5624C15.2307 50.2225 15.1673 49.8531 15.1673 49.4544V45.4397H16.4144V49.4498C16.4144 49.7063 16.4484 49.9381 16.5164 50.1452C16.5875 50.3523 16.688 50.53 16.8178 50.6783C16.9507 50.8236 17.1114 50.9364 17.2999 51.0168C17.4915 51.0971 17.7079 51.1373 17.949 51.1373Z" fill="#FFA76D"/>
<path d="M23.3841 52.1433H22.1324V45.4397H23.3841V52.1433Z" fill="#FFA76D"/>
<path d="M27.0639 48.81C27.2926 48.81 27.492 48.7822 27.662 48.7266C27.832 48.6679 27.9726 48.586 28.0838 48.4809C28.1982 48.3727 28.2832 48.2429 28.3388 48.0915C28.3945 47.9369 28.4223 47.7654 28.4223 47.5769C28.4223 47.3976 28.3945 47.2353 28.3388 47.0901C28.2832 46.9448 28.1997 46.8212 28.0885 46.7192C27.9772 46.6172 27.8366 46.5399 27.6666 46.4874C27.4966 46.4318 27.2957 46.4039 27.0639 46.4039H26.1321V48.81H27.0639ZM27.0639 45.4397C27.5121 45.4397 27.8999 45.4922 28.2276 45.5973C28.5552 45.7024 28.8256 45.8492 29.0389 46.0377C29.2521 46.2262 29.4097 46.4518 29.5117 46.7146C29.6168 46.9773 29.6694 47.2647 29.6694 47.5769C29.6694 47.9014 29.6153 48.1996 29.5071 48.4716C29.3989 48.7405 29.2367 48.9723 29.0203 49.167C28.804 49.3617 28.532 49.5132 28.2044 49.6213C27.8799 49.7295 27.4997 49.7836 27.0639 49.7836H26.1321V52.1433H24.885V45.4397H27.0639Z" fill="#FFA76D"/>
<path d="M36.6696 51.2857V52.1433H32.9608V51.2857H34.3191V47.3775C34.3191 47.223 34.3238 47.0638 34.333 46.9L33.3687 47.7067C33.3131 47.7499 33.2575 47.7777 33.2018 47.7901C33.1493 47.7994 33.0983 47.7994 33.0489 47.7901C33.0025 47.7808 32.9608 47.7654 32.9237 47.7437C32.8866 47.719 32.8588 47.6928 32.8402 47.6649L32.4786 47.1689L34.5231 45.4304H35.4642V51.2857H36.6696Z" fill="#FFA76D"/>
<path d="M42.3958 48.7915C42.3958 49.3756 42.3324 49.884 42.2057 50.3167C42.0821 50.7463 41.909 51.1018 41.6865 51.383C41.467 51.6643 41.2059 51.8744 40.903 52.0135C40.6032 52.1495 40.2787 52.2175 39.9294 52.2175C39.5802 52.2175 39.2556 52.1495 38.9559 52.0135C38.6591 51.8744 38.4011 51.6643 38.1816 51.383C37.9622 51.1018 37.7907 50.7463 37.667 50.3167C37.5434 49.884 37.4816 49.3756 37.4816 48.7915C37.4816 48.2043 37.5434 47.6958 37.667 47.2662C37.7907 46.8366 37.9622 46.4812 38.1816 46.2C38.4011 45.9187 38.6591 45.7101 38.9559 45.5741C39.2556 45.435 39.5802 45.3655 39.9294 45.3655C40.2787 45.3655 40.6032 45.435 40.903 45.5741C41.2059 45.7101 41.467 45.9187 41.6865 46.2C41.909 46.4812 42.0821 46.8366 42.2057 47.2662C42.3324 47.6958 42.3958 48.2043 42.3958 48.7915ZM41.2136 48.7915C41.2136 48.3063 41.178 47.9045 41.107 47.5861C41.0359 47.2678 40.9401 47.0144 40.8195 46.8258C40.7021 46.6373 40.5661 46.5059 40.4116 46.4318C40.257 46.3545 40.0963 46.3159 39.9294 46.3159C39.7656 46.3159 39.6064 46.3545 39.4519 46.4318C39.3005 46.5059 39.166 46.6373 39.0486 46.8258C38.9311 47.0144 38.8369 47.2678 38.7658 47.5861C38.6978 47.9045 38.6638 48.3063 38.6638 48.7915C38.6638 49.2767 38.6978 49.6785 38.7658 49.9968C38.8369 50.3152 38.9311 50.5686 39.0486 50.7572C39.166 50.9457 39.3005 51.0786 39.4519 51.1559C39.6064 51.23 39.7656 51.2671 39.9294 51.2671C40.0963 51.2671 40.257 51.23 40.4116 51.1559C40.5661 51.0786 40.7021 50.9457 40.8195 50.7572C40.9401 50.5686 41.0359 50.3152 41.107 49.9968C41.178 49.6785 41.2136 49.2767 41.2136 48.7915Z" fill="#FFA76D"/>
<path d="M47.7743 48.7915C47.7743 49.3756 47.7109 49.884 47.5842 50.3167C47.4606 50.7463 47.2875 51.1018 47.065 51.383C46.8455 51.6643 46.5844 51.8744 46.2815 52.0135C45.9817 52.1495 45.6572 52.2175 45.3079 52.2175C44.9587 52.2175 44.6341 52.1495 44.3343 52.0135C44.0376 51.8744 43.7796 51.6643 43.5601 51.383C43.3407 51.1018 43.1692 50.7463 43.0455 50.3167C42.9219 49.884 42.8601 49.3756 42.8601 48.7915C42.8601 48.2043 42.9219 47.6958 43.0455 47.2662C43.1692 46.8366 43.3407 46.4812 43.5601 46.2C43.7796 45.9187 44.0376 45.7101 44.3343 45.5741C44.6341 45.435 44.9587 45.3655 45.3079 45.3655C45.6572 45.3655 45.9817 45.435 46.2815 45.5741C46.5844 45.7101 46.8455 45.9187 47.065 46.2C47.2875 46.4812 47.4606 46.8366 47.5842 47.2662C47.7109 47.6958 47.7743 48.2043 47.7743 48.7915ZM46.5921 48.7915C46.5921 48.3063 46.5565 47.9045 46.4855 47.5861C46.4144 47.2678 46.3186 47.0144 46.198 46.8258C46.0806 46.6373 45.9446 46.5059 45.7901 46.4318C45.6355 46.3545 45.4748 46.3159 45.3079 46.3159C45.1441 46.3159 44.9849 46.3545 44.8304 46.4318C44.679 46.5059 44.5445 46.6373 44.4271 46.8258C44.3096 47.0144 44.2154 47.2678 44.1443 47.5861C44.0763 47.9045 44.0423 48.3063 44.0423 48.7915C44.0423 49.2767 44.0763 49.6785 44.1443 49.9968C44.2154 50.3152 44.3096 50.5686 44.4271 50.7572C44.5445 50.9457 44.679 51.0786 44.8304 51.1559C44.9849 51.23 45.1441 51.2671 45.3079 51.2671C45.4748 51.2671 45.6355 51.23 45.7901 51.1559C45.9446 51.0786 46.0806 50.9457 46.198 50.7572C46.3186 50.5686 46.4144 50.3152 46.4855 49.9968C46.5565 49.6785 46.5921 49.2767 46.5921 48.7915Z" fill="#FFA76D"/>
<path d="M53.1528 48.7915C53.1528 49.3756 53.0894 49.884 52.9627 50.3167C52.8391 50.7463 52.666 51.1018 52.4434 51.383C52.224 51.6643 51.9628 51.8744 51.66 52.0135C51.3602 52.1495 51.0356 52.2175 50.6864 52.2175C50.3372 52.2175 50.0126 52.1495 49.7128 52.0135C49.4161 51.8744 49.1581 51.6643 48.9386 51.383C48.7192 51.1018 48.5477 50.7463 48.424 50.3167C48.3004 49.884 48.2386 49.3756 48.2386 48.7915C48.2386 48.2043 48.3004 47.6958 48.424 47.2662C48.5477 46.8366 48.7192 46.4812 48.9386 46.2C49.1581 45.9187 49.4161 45.7101 49.7128 45.5741C50.0126 45.435 50.3372 45.3655 50.6864 45.3655C51.0356 45.3655 51.3602 45.435 51.66 45.5741C51.9628 45.7101 52.224 45.9187 52.4434 46.2C52.666 46.4812 52.8391 46.8366 52.9627 47.2662C53.0894 47.6958 53.1528 48.2043 53.1528 48.7915ZM51.9706 48.7915C51.9706 48.3063 51.935 47.9045 51.8639 47.5861C51.7929 47.2678 51.697 47.0144 51.5765 46.8258C51.4591 46.6373 51.3231 46.5059 51.1685 46.4318C51.014 46.3545 50.8533 46.3159 50.6864 46.3159C50.5226 46.3159 50.3634 46.3545 50.2089 46.4318C50.0574 46.5059 49.923 46.6373 49.8056 46.8258C49.6881 47.0144 49.5938 47.2678 49.5228 47.5861C49.4548 47.9045 49.4208 48.3063 49.4208 48.7915C49.4208 49.2767 49.4548 49.6785 49.5228 49.9968C49.5938 50.3152 49.6881 50.5686 49.8056 50.7572C49.923 50.9457 50.0574 51.0786 50.2089 51.1559C50.3634 51.23 50.5226 51.2671 50.6864 51.2671C50.8533 51.2671 51.014 51.23 51.1685 51.1559C51.3231 51.0786 51.4591 50.9457 51.5765 50.7572C51.697 50.5686 51.7929 50.3152 51.8639 49.9968C51.935 49.6785 51.9706 49.2767 51.9706 48.7915Z" fill="#FFA76D"/>
<path d="M40.312 19.5944C42.2123 19.5944 43.7529 17.8794 43.7529 15.7639C43.7529 13.6483 42.2123 11.9333 40.312 11.9333C38.4116 11.9333 36.8711 13.6483 36.8711 15.7639C36.8711 17.8794 38.4116 19.5944 40.312 19.5944Z" fill="#FFA76D" stroke="#FFA76D" stroke-width="0.755906" stroke-miterlimit="22.9256"/>
<path fill-rule="evenodd" clip-rule="evenodd" d="M28.9737 9.94762C31.1186 0.433098 37.1002 3.83962 41.1633 0.785645C40.2475 4.75251 36.1653 4.62081 33.6317 5.8784C36.6023 5.9686 39.175 4.98538 41.3444 2.91421C38.8595 10.1857 33.162 7.96314 29.244 9.9319L28.772 10.719C31.2585 15.8918 34.9569 19.6916 39.3774 21.5605C43.1642 21.8929 46.5721 22.5888 48.7039 24.5099C50.5911 25.963 51.6961 27.3872 51.7235 28.7712C48.6994 25.3943 45.9443 24.6759 43.4022 26.0606C41.1806 27.7329 42.423 32.0377 46.3925 36.134C48.9391 38.5383 51.6567 40.3148 54.6855 40.947C51.9608 41.7845 48.62 40.7694 44.9728 38.8337C42.5372 37.5409 40.4862 35.6224 38.462 34.5778C37.2183 33.9362 33.9724 33.1493 32.6913 33.7352C30.307 34.8259 31.9381 39.5789 31.7478 41.6707C30.8425 39.7335 29.8887 37.3837 28.8924 34.6704C28.428 33.4058 27.285 31.0919 28.1276 29.8516C28.6967 29.0139 30.0385 29.0975 32.1044 30.045C33.3392 30.7024 34.3992 30.9615 35.2765 30.8053C36.7828 30.5368 36.8472 29.5512 36.6877 28.199C36.5599 27.1153 36.0896 26.3853 35.5561 25.7211C35.4786 25.6247 35.3997 25.5294 35.3203 25.4348C34.3131 24.2334 33.4331 22.7377 32.5462 21.4086C32.451 21.266 32.3574 21.1241 32.2656 20.9831C29.5615 16.8334 28.2555 13.345 28.772 10.719L28.9737 9.94762Z" fill="#FFA76D"/>
<path d="M14.5307 19.5944C16.4311 19.5944 17.9716 17.8794 17.9716 15.7639C17.9716 13.6483 16.4311 11.9333 14.5307 11.9333C12.6304 11.9333 11.0898 13.6483 11.0898 15.7639C11.0898 17.8794 12.6304 19.5944 14.5307 19.5944Z" fill="#FFA76D" stroke="#FFA76D" stroke-width="0.755906" stroke-miterlimit="22.9256"/>
<path fill-rule="evenodd" clip-rule="evenodd" d="M25.8681 9.94762C23.7232 0.433098 17.7416 3.83962 13.6784 0.785645C14.5942 4.75251 18.6764 4.62081 21.2101 5.8784C18.2395 5.9686 15.6668 4.98538 13.4973 2.91421C15.9823 10.1857 21.6798 7.96314 25.5977 9.9319L26.0698 10.719C23.5833 15.8918 19.8849 19.6916 15.4643 21.5605C11.6776 21.8929 8.26978 22.5888 6.13787 24.5099C4.25069 25.963 3.14572 27.3872 3.11827 28.7712C6.14244 25.3943 8.89746 24.6759 11.4396 26.0606C13.6611 27.7329 12.4188 32.0377 8.44931 36.134C5.90276 38.5383 3.18518 40.3148 0.15625 40.947C2.88096 41.7845 6.22178 40.7694 9.86902 38.8337C12.3046 37.5409 14.3556 35.6224 16.3798 34.5778C17.6235 33.9362 20.8694 33.1493 22.1505 33.7352C24.5348 34.8259 22.9037 39.5789 23.094 41.6707C23.9993 39.7335 24.9531 37.3837 25.9493 34.6704C26.4138 33.4058 27.5568 31.0919 26.7142 29.8516C26.145 29.0139 24.8032 29.0975 22.7374 30.045C21.5025 30.7024 20.4426 30.9615 19.5653 30.8053C18.059 30.5368 17.9945 29.5512 18.1541 28.199C18.2819 27.1153 18.7521 26.3853 19.2858 25.7211C19.3631 25.6247 19.4421 25.5294 19.5215 25.4348C20.5287 24.2334 21.4086 22.7377 22.2956 21.4086C22.3908 21.266 22.4844 21.1241 22.5762 20.9831C25.2803 16.8334 26.5863 13.345 26.0698 10.719L25.8681 9.94762Z" fill="#FFA76D"/>
</svg>
