<svg xmlns="http://www.w3.org/2000/svg" width="30" height="28" fill="none" viewBox="0 0 30 28"><path fill="#fff" d="M29.6666 13.9867L26.4132 10.2667L26.8666 5.34667L22.0533 4.25333L19.5333 0L14.9999 1.94667L10.4666 0L7.94658 4.25333L3.13325 5.33333L3.58659 10.2667L0.333252 13.9867L3.58659 17.7067L3.13325 22.64L7.94658 23.7333L10.4666 28L14.9999 26.04L19.5333 27.9867L22.0533 23.7333L26.8666 22.64L26.4132 17.72L29.6666 13.9867ZM24.3999 15.96L23.6532 16.8267L23.7599 17.96L23.9999 20.56L21.4666 21.1333L20.3466 21.3867L19.7599 22.3733L18.4399 24.6133L16.0666 23.5867L14.9999 23.1333L13.9466 23.5867L11.5733 24.6133L10.2533 22.3867L9.66658 21.4L8.54658 21.1467L6.01325 20.5733L6.25325 17.96L6.35992 16.8267L5.61325 15.96L3.89325 14L5.61325 12.0267L6.35992 11.16L6.23992 10.0133L5.99992 7.42667L8.53325 6.85333L9.65325 6.6L10.2399 5.61333L11.5599 3.37333L13.9333 4.4L14.9999 4.85333L16.0533 4.4L18.4266 3.37333L19.7466 5.61333L20.3333 6.6L21.4533 6.85333L23.9866 7.42667L23.7466 10.0267L23.6399 11.16L24.3866 12.0267L26.1066 13.9867L24.3999 15.96Z"/><path fill="#fff" d="M12.4531 16.3332L9.35981 13.2265L7.38647 15.2132L12.4531 20.2932L22.2398 10.4798L20.2665 8.49316L12.4531 16.3332Z"/></svg>