<svg width="94" height="94" viewBox="0 0 94 94" fill="none" xmlns="http://www.w3.org/2000/svg">
<path d="M47.0002 0.333496C21.2402 0.333496 0.333496 21.2402 0.333496 47.0002C0.333496 72.7602 21.2402 93.6668 47.0002 93.6668C72.7602 93.6668 93.6668 72.7602 93.6668 47.0002C93.6668 21.2402 72.7602 0.333496 47.0002 0.333496ZM47.0002 84.3335C26.4202 84.3335 9.66683 67.5802 9.66683 47.0002C9.66683 26.4202 26.4202 9.66683 47.0002 9.66683C67.5802 9.66683 84.3335 26.4202 84.3335 47.0002C84.3335 67.5802 67.5802 84.3335 47.0002 84.3335ZM68.4202 26.3735L37.6668 57.1268L25.5802 45.0868L19.0002 51.6668L37.6668 70.3335L75.0002 33.0002L68.4202 26.3735Z" fill="#20A612"/>
</svg>
