<svg width="32" height="32" viewBox="0 0 32 32" fill="none" xmlns="http://www.w3.org/2000/svg">
<g clip-path="url(#clip0_2987_1337)">
<path d="M15.9997 7.99967C17.4663 7.99967 18.6663 9.19967 18.6663 10.6663C18.6663 12.133 17.4663 13.333 15.9997 13.333C14.533 13.333 13.333 12.133 13.333 10.6663C13.333 9.19967 14.533 7.99967 15.9997 7.99967ZM15.9997 21.333C19.5997 21.333 23.733 23.053 23.9997 23.9997H7.99967C8.30634 23.0397 12.413 21.333 15.9997 21.333ZM15.9997 5.33301C13.053 5.33301 10.6663 7.71967 10.6663 10.6663C10.6663 13.613 13.053 15.9997 15.9997 15.9997C18.9463 15.9997 21.333 13.613 21.333 10.6663C21.333 7.71967 18.9463 5.33301 15.9997 5.33301ZM15.9997 18.6663C12.4397 18.6663 5.33301 20.453 5.33301 23.9997V26.6663H26.6663V23.9997C26.6663 20.453 19.5597 18.6663 15.9997 18.6663Z" fill="white"/>
</g>
<defs>
<clipPath id="clip0_2987_1337">
<rect width="32" height="32" fill="white"/>
</clipPath>
</defs>
</svg>
