<svg width="24" height="25" viewBox="0 0 24 25" fill="none" xmlns="http://www.w3.org/2000/svg">
<g clip-path="url(#clip0_991_5213)">
<path d="M3 13.5H5V11.5H3V13.5ZM3 17.5H5V15.5H3V17.5ZM3 9.5H5V7.5H3V9.5ZM7 13.5H21V11.5H7V13.5ZM7 17.5H21V15.5H7V17.5ZM7 7.5V9.5H21V7.5H7ZM3 13.5H5V11.5H3V13.5ZM3 17.5H5V15.5H3V17.5ZM3 9.5H5V7.5H3V9.5ZM7 13.5H21V11.5H7V13.5ZM7 17.5H21V15.5H7V17.5ZM7 7.5V9.5H21V7.5H7Z" fill="white"/>
</g>
<defs>
<clipPath id="clip0_991_5213">
<rect width="24" height="24" fill="white" transform="translate(0 0.5)"/>
</clipPath>
</defs>
</svg>
