<svg width="24" height="25" viewBox="0 0 24 25" fill="none" xmlns="http://www.w3.org/2000/svg">
<g clip-path="url(#clip0_989_5362)">
<path d="M13.17 4.5L18 9.33V20.5H6V4.5H13.17ZM14 2.5H6C4.9 2.5 4 3.4 4 4.5V20.5C4 21.6 4.9 22.5 6 22.5H18C19.1 22.5 20 21.6 20 20.5V8.5L14 2.5ZM12 14.5C13.1 14.5 14 13.6 14 12.5C14 11.4 13.1 10.5 12 10.5C10.9 10.5 10 11.4 10 12.5C10 13.6 10.9 14.5 12 14.5ZM16 17.93C16 17.12 15.52 16.4 14.78 16.08C13.93 15.71 12.99 15.5 12 15.5C11.01 15.5 10.07 15.71 9.22 16.08C8.48 16.4 8 17.12 8 17.93V18.5H16V17.93Z" fill="white"/>
</g>
<defs>
<clipPath id="clip0_989_5362">
<rect width="24" height="24" fill="white" transform="translate(0 0.5)"/>
</clipPath>
</defs>
</svg>
