<svg xmlns="http://www.w3.org/2000/svg" width="16" height="16" fill="none" viewBox="0 0 16 16"><g clip-path="url(#clip0_3176_2013)"><path fill="#fff" d="M7.99984 14.6665C8.73317 14.6665 9.33317 14.0665 9.33317 13.3332H6.6665C6.6665 14.0665 7.2665 14.6665 7.99984 14.6665ZM11.9998 10.6665V7.33317C11.9998 5.2865 10.9132 3.57317 8.99984 3.11984V2.6665C8.99984 2.11317 8.55317 1.6665 7.99984 1.6665C7.4465 1.6665 6.99984 2.11317 6.99984 2.6665V3.11984C5.09317 3.57317 3.99984 5.27984 3.99984 7.33317V10.6665L2.6665 11.9998V12.6665H13.3332V11.9998L11.9998 10.6665ZM10.6665 11.3332H5.33317V7.33317C5.33317 5.67984 6.33984 4.33317 7.99984 4.33317C9.65984 4.33317 10.6665 5.67984 10.6665 7.33317V11.3332Z"/></g><defs><clipPath id="clip0_3176_2013"><rect width="16" height="16" fill="#fff"/></clipPath></defs></svg>