<svg xmlns="http://www.w3.org/2000/svg" width="24" height="25" fill="none" viewBox="0 0 24 25"><g clip-path="url(#clip0_1396_8204)"><path fill="#323232" d="M12 4.5C13.93 4.5 17 5.9 17 9.65C17 11.81 15.28 14.32 12 16.97C8.72 14.32 7 11.8 7 9.65C7 5.9 10.07 4.5 12 4.5ZM12 2.5C8.73 2.5 5 4.96 5 9.65C5 12.77 7.33 16.06 12 19.5C16.67 16.06 19 12.77 19 9.65C19 4.96 15.27 2.5 12 2.5Z"/><path fill="#323232" d="M12 7.5C10.9 7.5 10 8.4 10 9.5C10 10.6 10.9 11.5 12 11.5C12.5304 11.5 13.0391 11.2893 13.4142 10.9142C13.7893 10.5391 14 10.0304 14 9.5C14 8.96957 13.7893 8.46086 13.4142 8.08579C13.0391 7.71071 12.5304 7.5 12 7.5ZM5 20.5H19V22.5H5V20.5Z"/></g><defs><clipPath id="clip0_1396_8204"><rect width="24" height="24" fill="#fff" transform="translate(0 0.5)"/></clipPath></defs></svg>