<svg xmlns="http://www.w3.org/2000/svg" width="25" height="24" fill="none" viewBox="0 0 25 24"><g clip-path="url(#clip0_1396_6988)"><path fill="#323232" d="M7.66675 7.07L9.09675 8.5C10.0067 7.59 11.2767 7.02 12.6667 7.02C14.0567 7.02 15.3267 7.59 16.2367 8.5L17.6667 7.07C16.3867 5.79 14.6167 5 12.6667 5C10.7167 5 8.94675 5.79 7.66675 7.07ZM12.6667 1C9.64675 1 6.90675 2.23 4.91675 4.21L6.32675 5.62C7.94675 4 10.1967 3 12.6667 3C15.1367 3 17.3867 4 19.0067 5.62L20.4167 4.21C18.4267 2.23 15.6867 1 12.6667 1ZM15.5267 10.01L9.80675 10C9.17675 10 8.66675 10.51 8.66675 11.14V20.85C8.66675 21.48 9.17675 21.99 9.80675 21.99H15.5167C16.1467 21.99 16.6567 21.48 16.6567 20.85V11.14C16.6667 10.51 16.1567 10.01 15.5267 10.01ZM15.6667 20H9.66675V12H15.6667V20Z"/></g><defs><clipPath id="clip0_1396_6988"><rect width="24" height="24" fill="#fff" transform="translate(0.666748)"/></clipPath></defs></svg>