<svg width="25" height="24" viewBox="0 0 25 24" fill="none" xmlns="http://www.w3.org/2000/svg">
<g clip-path="url(#clip0_699_8491)">
<path d="M7.5 7.07L8.93 8.5C9.84 7.59 11.11 7.02 12.5 7.02C13.89 7.02 15.16 7.59 16.07 8.5L17.5 7.07C16.22 5.79 14.45 5 12.5 5C10.55 5 8.78 5.79 7.5 7.07ZM12.5 1C9.48 1 6.74 2.23 4.75 4.21L6.16 5.62C7.78 4 10.03 3 12.5 3C14.97 3 17.22 4 18.84 5.62L20.25 4.21C18.26 2.23 15.52 1 12.5 1ZM15.36 10.01L9.64 10C9.01 10 8.5 10.51 8.5 11.14V20.85C8.5 21.48 9.01 21.99 9.64 21.99H15.35C15.98 21.99 16.49 21.48 16.49 20.85V11.14C16.5 10.51 15.99 10.01 15.36 10.01ZM15.5 20H9.5V12H15.5V20Z" fill="#F6FAFE"/>
</g>
<defs>
<clipPath id="clip0_699_8491">
<rect width="24" height="24" fill="white" transform="translate(0.5)"/>
</clipPath>
</defs>
</svg>
