<svg width="20" height="11" viewBox="0 0 20 11" fill="none" xmlns="http://www.w3.org/2000/svg">
<path d="M19.375 8.40627C19.2894 8.45512 19.1949 8.48659 19.0971 8.49889C18.9992 8.51119 18.8999 8.50408 18.8048 8.47796C18.7097 8.45183 18.6207 8.40721 18.5429 8.34665C18.4651 8.28609 18.3999 8.21077 18.3513 8.12502L16.57 5.01252C15.5344 5.71272 14.3921 6.2402 13.1875 6.57439L13.7378 9.87627C13.7541 9.97347 13.751 10.0729 13.7288 10.1689C13.7065 10.2649 13.6656 10.3556 13.6083 10.4358C13.551 10.516 13.4785 10.5841 13.3949 10.6363C13.3113 10.6884 13.2182 10.7236 13.121 10.7397C13.081 10.7462 13.0405 10.7497 13 10.75C12.8226 10.7498 12.651 10.6866 12.5157 10.5718C12.3805 10.4569 12.2903 10.2979 12.2613 10.1228L11.7203 6.88095C10.5796 7.0397 9.42233 7.0397 8.28158 6.88095L7.74064 10.1228C7.71153 10.2982 7.62109 10.4575 7.48545 10.5724C7.3498 10.6872 7.17776 10.7502 7.00001 10.75C6.95856 10.7498 6.91718 10.7464 6.87626 10.7397C6.77904 10.7236 6.68596 10.6884 6.60233 10.6363C6.5187 10.5841 6.44617 10.516 6.38888 10.4358C6.33159 10.3556 6.29067 10.2649 6.26845 10.1689C6.24623 10.0729 6.24315 9.97347 6.25939 9.87627L6.81251 6.57439C5.60842 6.23914 4.4667 5.71071 3.43189 5.0097L1.65626 8.12502C1.55681 8.29832 1.39258 8.42501 1.19971 8.47723C1.00684 8.52945 0.801128 8.50291 0.627826 8.40345C0.454524 8.304 0.327828 8.13977 0.275611 7.9469C0.223394 7.75403 0.249932 7.54832 0.349388 7.37502L2.22439 4.09377C1.56579 3.52478 0.960186 2.89721 0.415013 2.21877C0.347025 2.14286 0.295219 2.05389 0.262759 1.95729C0.230299 1.86069 0.217865 1.75849 0.226217 1.65693C0.234568 1.55536 0.26353 1.45657 0.311334 1.36657C0.359138 1.27657 0.424781 1.19726 0.504257 1.13347C0.583733 1.06969 0.675374 1.02277 0.773586 0.995579C0.871798 0.968389 0.974521 0.961499 1.07548 0.97533C1.17645 0.989161 1.27353 1.02342 1.36082 1.07602C1.4481 1.12862 1.52374 1.19846 1.58314 1.28127C3.13939 3.20689 5.86189 5.50002 10 5.50002C14.1381 5.50002 16.8606 3.20408 18.4169 1.28127C18.4756 1.19676 18.5511 1.12525 18.6386 1.07117C18.7262 1.01708 18.8239 0.981596 18.9257 0.966908C19.0276 0.95222 19.1314 0.958648 19.2306 0.98579C19.3299 1.01293 19.4225 1.06021 19.5027 1.12468C19.5829 1.18915 19.649 1.26943 19.6968 1.36054C19.7447 1.45164 19.7732 1.55161 19.7808 1.65423C19.7883 1.75686 19.7747 1.85993 19.7407 1.95706C19.7067 2.05418 19.653 2.14326 19.5831 2.21877C19.038 2.89721 18.4324 3.52478 17.7738 4.09377L19.6488 7.37502C19.6991 7.46055 19.732 7.55522 19.7454 7.65355C19.7589 7.75187 19.7527 7.85189 19.7273 7.94782C19.7018 8.04374 19.6576 8.13365 19.5971 8.21235C19.5366 8.29104 19.4611 8.35696 19.375 8.40627Z" fill="#212529"/>
</svg>
