<svg width="80" height="77" viewBox="0 0 80 77" fill="none" xmlns="http://www.w3.org/2000/svg">
<path d="M5.56763 66.537V69.2411H8.97974V70.637H5.56763V73.395H9.89682V74.8448H3.74695V65.094H9.89682V66.537H5.56763Z" fill="#FFA76D"/>
<path d="M12.5749 69.9694C12.5749 70.5043 12.6468 70.9854 12.7906 71.4124C12.9345 71.835 13.139 72.1946 13.4043 72.4914C13.674 72.7836 13.9977 73.0083 14.3753 73.1657C14.7574 73.323 15.1867 73.4017 15.6633 73.4017C16.1398 73.4017 16.5669 73.323 16.9445 73.1657C17.3266 73.0083 17.6503 72.7836 17.9155 72.4914C18.1808 72.1946 18.3853 71.835 18.5292 71.4124C18.673 70.9854 18.745 70.5043 18.745 69.9694C18.745 69.4344 18.673 68.9556 18.5292 68.533C18.3853 68.106 18.1808 67.7441 17.9155 67.4474C17.6503 67.1507 17.3266 66.9237 16.9445 66.7663C16.5669 66.609 16.1398 66.5303 15.6633 66.5303C15.1867 66.5303 14.7574 66.609 14.3753 66.7663C13.9977 66.9237 13.674 67.1507 13.4043 67.4474C13.139 67.7441 12.9345 68.106 12.7906 68.533C12.6468 68.9556 12.5749 69.4344 12.5749 69.9694ZM21.1051 76.7531H19.6081C19.3923 76.7531 19.1968 76.7239 19.0214 76.6654C18.8506 76.607 18.6933 76.4991 18.5494 76.3418L17.1198 74.7638C16.8906 74.8268 16.6545 74.874 16.4118 74.9054C16.1735 74.9369 15.924 74.9526 15.6633 74.9526C14.926 74.9526 14.2539 74.829 13.647 74.5818C13.0401 74.33 12.5187 73.9816 12.0826 73.5366C11.651 73.0915 11.3161 72.5655 11.0778 71.9586C10.8396 71.3472 10.7204 70.6842 10.7204 69.9694C10.7204 69.2546 10.8396 68.5937 11.0778 67.9868C11.3161 67.3755 11.651 66.8472 12.0826 66.4022C12.5187 65.9571 13.0401 65.611 13.647 65.3637C14.2539 65.112 14.926 64.9861 15.6633 64.9861C16.1578 64.9861 16.6231 65.0445 17.0591 65.1614C17.4952 65.2738 17.8953 65.4356 18.2594 65.6469C18.6236 65.8537 18.9495 66.1077 19.2372 66.4089C19.5294 66.7056 19.7767 67.0383 19.979 67.4069C20.1813 67.7756 20.3341 68.1757 20.4375 68.6072C20.5454 69.0388 20.5994 69.4928 20.5994 69.9694C20.5994 70.4054 20.5544 70.8235 20.4645 71.2236C20.3746 71.6192 20.2442 71.9901 20.0734 72.3363C19.907 72.6824 19.7025 73.0016 19.4597 73.2938C19.217 73.5815 18.9405 73.8355 18.6303 74.0558L21.1051 76.7531Z" fill="#FFA76D"/>
<path d="M26.1102 73.3815C26.4609 73.3815 26.7733 73.323 27.0475 73.2061C27.3262 73.0893 27.56 72.9252 27.7488 72.7139C27.9376 72.5026 28.0815 72.2463 28.1804 71.9451C28.2838 71.6439 28.3355 71.3068 28.3355 70.9337V65.094H30.1494V70.9337C30.1494 71.5136 30.055 72.0508 29.8662 72.5453C29.6819 73.0353 29.4144 73.4601 29.0638 73.8198C28.7176 74.1749 28.295 74.4536 27.796 74.6559C27.297 74.8537 26.7351 74.9526 26.1102 74.9526C25.4808 74.9526 24.9166 74.8537 24.4176 74.6559C23.9186 74.4536 23.4938 74.1749 23.1432 73.8198C22.797 73.4601 22.5295 73.0353 22.3407 72.5453C22.1564 72.0508 22.0642 71.5136 22.0642 70.9337V65.094H23.8782V70.9269C23.8782 71.3 23.9276 71.6372 24.0265 71.9384C24.1299 72.2396 24.276 72.4981 24.4648 72.7139C24.6581 72.9252 24.8919 73.0893 25.1661 73.2061C25.4449 73.323 25.7595 73.3815 26.1102 73.3815Z" fill="#FFA76D"/>
<path d="M34.0159 74.8448H32.1952V65.094H34.0159V74.8448Z" fill="#FFA76D"/>
<path d="M39.3683 69.9963C39.701 69.9963 39.991 69.9559 40.2382 69.875C40.4855 69.7895 40.69 69.6704 40.8519 69.5176C41.0182 69.3602 41.1418 69.1714 41.2227 68.9511C41.3037 68.7264 41.3441 68.4769 41.3441 68.2026C41.3441 67.9419 41.3037 67.7059 41.2227 67.4946C41.1418 67.2833 41.0204 67.1035 40.8586 66.9551C40.6968 66.8068 40.4922 66.6944 40.245 66.618C39.9977 66.537 39.7055 66.4966 39.3683 66.4966H38.0129V69.9963H39.3683ZM39.3683 65.094C40.0202 65.094 40.5844 65.1704 41.0609 65.3232C41.5374 65.4761 41.9308 65.6896 42.241 65.9639C42.5512 66.2381 42.7804 66.5663 42.9288 66.9484C43.0816 67.3305 43.1581 67.7486 43.1581 68.2026C43.1581 68.6747 43.0794 69.1085 42.922 69.5041C42.7647 69.8952 42.5287 70.2324 42.214 70.5156C41.8993 70.7988 41.5037 71.0191 41.0272 71.1764C40.5552 71.3338 40.0022 71.4124 39.3683 71.4124H38.0129V74.8448H36.199V65.094H39.3683Z" fill="#FFA76D"/>
<path d="M53.3402 73.5973V74.8448H47.9456V73.5973H49.9214V67.9127C49.9214 67.6879 49.9281 67.4564 49.9416 67.2181L48.539 68.3914C48.4581 68.4544 48.3771 68.4948 48.2962 68.5128C48.2198 68.5263 48.1456 68.5263 48.0737 68.5128C48.0063 68.4993 47.9456 68.4769 47.8916 68.4454C47.8377 68.4094 47.7972 68.3712 47.7703 68.3307L47.2443 67.6092L50.2181 65.0805H51.5869V73.5973H53.3402Z" fill="#FFA76D"/>
<path d="M61.6692 69.9694C61.6692 70.819 61.5771 71.5585 61.3927 72.1879C61.2129 72.8128 60.9612 73.3298 60.6375 73.7389C60.3183 74.148 59.9384 74.4536 59.4979 74.6559C59.0618 74.8537 58.5898 74.9526 58.0818 74.9526C57.5738 74.9526 57.1018 74.8537 56.6657 74.6559C56.2341 74.4536 55.8587 74.148 55.5396 73.7389C55.2204 73.3298 54.9709 72.8128 54.7911 72.1879C54.6112 71.5585 54.5213 70.819 54.5213 69.9694C54.5213 69.1152 54.6112 68.3757 54.7911 67.7508C54.9709 67.126 55.2204 66.609 55.5396 66.1999C55.8587 65.7908 56.2341 65.4873 56.6657 65.2895C57.1018 65.0872 57.5738 64.9861 58.0818 64.9861C58.5898 64.9861 59.0618 65.0872 59.4979 65.2895C59.9384 65.4873 60.3183 65.7908 60.6375 66.1999C60.9612 66.609 61.2129 67.126 61.3927 67.7508C61.5771 68.3757 61.6692 69.1152 61.6692 69.9694ZM59.9497 69.9694C59.9497 69.2636 59.898 68.6792 59.7946 68.2161C59.6912 67.7531 59.5518 67.3844 59.3765 67.1102C59.2057 66.836 59.0079 66.6449 58.7831 66.537C58.5583 66.4246 58.3245 66.3685 58.0818 66.3685C57.8435 66.3685 57.612 66.4246 57.3872 66.537C57.1669 66.6449 56.9714 66.836 56.8006 67.1102C56.6297 67.3844 56.4926 67.7531 56.3892 68.2161C56.2903 68.6792 56.2409 69.2636 56.2409 69.9694C56.2409 70.6752 56.2903 71.2596 56.3892 71.7226C56.4926 72.1857 56.6297 72.5543 56.8006 72.8285C56.9714 73.1027 57.1669 73.2961 57.3872 73.4084C57.612 73.5163 57.8435 73.5703 58.0818 73.5703C58.3245 73.5703 58.5583 73.5163 58.7831 73.4084C59.0079 73.2961 59.2057 73.1027 59.3765 72.8285C59.5518 72.5543 59.6912 72.1857 59.7946 71.7226C59.898 71.2596 59.9497 70.6752 59.9497 69.9694Z" fill="#FFA76D"/>
<path d="M69.4925 69.9694C69.4925 70.819 69.4003 71.5585 69.216 72.1879C69.0362 72.8128 68.7844 73.3298 68.4608 73.7389C68.1416 74.148 67.7617 74.4536 67.3211 74.6559C66.8851 74.8537 66.413 74.9526 65.905 74.9526C65.3971 74.9526 64.925 74.8537 64.489 74.6559C64.0574 74.4536 63.682 74.148 63.3628 73.7389C63.0436 73.3298 62.7941 72.8128 62.6143 72.1879C62.4345 71.5585 62.3446 70.819 62.3446 69.9694C62.3446 69.1152 62.4345 68.3757 62.6143 67.7508C62.7941 67.126 63.0436 66.609 63.3628 66.1999C63.682 65.7908 64.0574 65.4873 64.489 65.2895C64.925 65.0872 65.3971 64.9861 65.905 64.9861C66.413 64.9861 66.8851 65.0872 67.3211 65.2895C67.7617 65.4873 68.1416 65.7908 68.4608 66.1999C68.7844 66.609 69.0362 67.126 69.216 67.7508C69.4003 68.3757 69.4925 69.1152 69.4925 69.9694ZM67.7729 69.9694C67.7729 69.2636 67.7212 68.6792 67.6178 68.2161C67.5144 67.7531 67.3751 67.3844 67.1998 67.1102C67.0289 66.836 66.8311 66.6449 66.6064 66.537C66.3816 66.4246 66.1478 66.3685 65.905 66.3685C65.6668 66.3685 65.4353 66.4246 65.2105 66.537C64.9902 66.6449 64.7947 66.836 64.6238 67.1102C64.453 67.3844 64.3159 67.7531 64.2125 68.2161C64.1136 68.6792 64.0641 69.2636 64.0641 69.9694C64.0641 70.6752 64.1136 71.2596 64.2125 71.7226C64.3159 72.1857 64.453 72.5543 64.6238 72.8285C64.7947 73.1027 64.9902 73.2961 65.2105 73.4084C65.4353 73.5163 65.6668 73.5703 65.905 73.5703C66.1478 73.5703 66.3816 73.5163 66.6064 73.4084C66.8311 73.2961 67.0289 73.1027 67.1998 72.8285C67.3751 72.5543 67.5144 72.1857 67.6178 71.7226C67.7212 71.2596 67.7729 70.6752 67.7729 69.9694Z" fill="#FFA76D"/>
<path d="M77.3157 69.9694C77.3157 70.819 77.2236 71.5585 77.0393 72.1879C76.8594 72.8128 76.6077 73.3298 76.284 73.7389C75.9648 74.148 75.585 74.4536 75.1444 74.6559C74.7083 74.8537 74.2363 74.9526 73.7283 74.9526C73.2203 74.9526 72.7483 74.8537 72.3122 74.6559C71.8806 74.4536 71.5053 74.148 71.1861 73.7389C70.8669 73.3298 70.6174 72.8128 70.4376 72.1879C70.2578 71.5585 70.1678 70.819 70.1678 69.9694C70.1678 69.1152 70.2578 68.3757 70.4376 67.7508C70.6174 67.126 70.8669 66.609 71.1861 66.1999C71.5053 65.7908 71.8806 65.4873 72.3122 65.2895C72.7483 65.0872 73.2203 64.9861 73.7283 64.9861C74.2363 64.9861 74.7083 65.0872 75.1444 65.2895C75.585 65.4873 75.9648 65.7908 76.284 66.1999C76.6077 66.609 76.8594 67.126 77.0393 67.7508C77.2236 68.3757 77.3157 69.1152 77.3157 69.9694ZM75.5962 69.9694C75.5962 69.2636 75.5445 68.6792 75.4411 68.2161C75.3377 67.7531 75.1983 67.3844 75.023 67.1102C74.8522 66.836 74.6544 66.6449 74.4296 66.537C74.2048 66.4246 73.9711 66.3685 73.7283 66.3685C73.49 66.3685 73.2585 66.4246 73.0337 66.537C72.8135 66.6449 72.6179 66.836 72.4471 67.1102C72.2763 67.3844 72.1391 67.7531 72.0357 68.2161C71.9368 68.6792 71.8874 69.2636 71.8874 69.9694C71.8874 70.6752 71.9368 71.2596 72.0357 71.7226C72.1391 72.1857 72.2763 72.5543 72.4471 72.8285C72.6179 73.1027 72.8135 73.2961 73.0337 73.4084C73.2585 73.5163 73.49 73.5703 73.7283 73.5703C73.9711 73.5703 74.2048 73.5163 74.4296 73.4084C74.6544 73.2961 74.8522 73.1027 75.023 72.8285C75.1983 72.5543 75.3377 72.1857 75.4411 71.7226C75.5445 71.2596 75.5962 70.6752 75.5962 69.9694Z" fill="#FFA76D"/>
<path d="M58.6353 27.501C61.3995 27.501 63.6403 25.0065 63.6403 21.9293C63.6403 18.8522 61.3995 16.3577 58.6353 16.3577C55.8712 16.3577 53.6304 18.8522 53.6304 21.9293C53.6304 25.0065 55.8712 27.501 58.6353 27.501Z" fill="#FFA76D" stroke="#FFA76D" stroke-width="0.755906" stroke-miterlimit="22.9256"/>
<path fill-rule="evenodd" clip-rule="evenodd" d="M42.1438 13.4693C45.2637 -0.369973 53.9642 4.58496 59.8743 0.142822C58.5422 5.91281 52.6044 5.72124 48.9191 7.55046C53.24 7.68167 56.9822 6.25154 60.1377 3.23892C56.5232 13.8156 48.2359 10.5828 42.5371 13.4465L41.8505 14.5914C45.4672 22.1154 50.8467 27.6424 57.2766 30.3607C62.7846 30.8443 67.7415 31.8565 70.8424 34.6509C73.5873 36.7644 75.1946 38.8361 75.2345 40.8491C70.8358 35.9372 66.8284 34.8923 63.1307 36.9065C59.8994 39.3389 61.7064 45.6003 67.4803 51.5587C71.1844 55.0558 75.1373 57.6397 79.5429 58.5593C75.5797 59.7775 70.7203 58.3011 65.4152 55.4855C61.8725 53.605 58.8892 50.8145 55.945 49.2951C54.1359 48.3618 49.4147 47.2172 47.5513 48.0695C44.0832 49.6559 46.4557 56.5694 46.179 59.612C44.8621 56.7943 43.4748 53.3764 42.0257 49.4298C41.3501 47.5903 39.6876 44.2246 40.9132 42.4206C41.741 41.2022 43.6927 41.3237 46.6976 42.7018C48.4937 43.6581 50.0354 44.035 51.3116 43.8077C53.5026 43.4172 53.5963 41.9836 53.3643 40.0169C53.1783 38.4404 52.4943 37.3786 51.7182 36.4125C51.6056 36.2723 51.4908 36.1338 51.3753 35.9961C49.9103 34.2486 48.6303 32.073 47.3403 30.1398C47.2018 29.9324 47.0656 29.726 46.9321 29.5209C42.9988 23.485 41.0992 18.411 41.8505 14.5914L42.1438 13.4693Z" fill="#FFA76D"/>
<path d="M21.1359 27.501C23.9001 27.501 26.1409 25.0065 26.1409 21.9293C26.1409 18.8522 23.9001 16.3577 21.1359 16.3577C18.3718 16.3577 16.131 18.8522 16.131 21.9293C16.131 25.0065 18.3718 27.501 21.1359 27.501Z" fill="#FFA76D" stroke="#FFA76D" stroke-width="0.755906" stroke-miterlimit="22.9256"/>
<path fill-rule="evenodd" clip-rule="evenodd" d="M37.6276 13.4693C34.5077 -0.369973 25.8072 4.58496 19.8972 0.142822C21.2292 5.91281 27.167 5.72124 30.8523 7.55046C26.5314 7.68167 22.7893 6.25154 19.6338 3.23892C23.2482 13.8156 31.5355 10.5828 37.2343 13.4465L37.9209 14.5914C34.3042 22.1154 28.9247 27.6424 22.4948 30.3607C16.9868 30.8443 12.03 31.8565 8.92905 34.6509C6.18407 36.7644 4.57684 38.8361 4.5369 40.8491C8.93571 35.9372 12.943 34.8923 16.6407 36.9065C19.872 39.3389 18.065 45.6003 12.2911 51.5587C8.58708 55.0558 4.63424 57.6397 0.228516 58.5593C4.19174 59.7775 9.05111 58.3011 14.3562 55.4855C17.8989 53.605 20.8822 50.8145 23.8264 49.2951C25.6355 48.3618 30.3567 47.2172 32.2201 48.0695C35.6882 49.6559 33.3157 56.5694 33.5925 59.612C34.9093 56.7943 36.2966 53.3764 37.7457 49.4298C38.4213 47.5903 40.0838 44.2246 38.8582 42.4206C38.0304 41.2022 36.0787 41.3237 33.0738 42.7018C31.2777 43.6581 29.736 44.035 28.4598 43.8077C26.2689 43.4172 26.1751 41.9836 26.4071 40.0169C26.5931 38.4404 27.2771 37.3786 28.0533 36.4125C28.1658 36.2723 28.2807 36.1338 28.3961 35.9961C29.8611 34.2486 31.1411 32.073 32.4312 30.1398C32.5696 29.9324 32.7058 29.726 32.8393 29.5209C36.7726 23.485 38.6722 18.411 37.9209 14.5914L37.6276 13.4693Z" fill="#FFA76D"/>
</svg>
